<?xml version="1.0" standalone="no"?>
<!DOCTYPE svg PUBLIC "-//W3C//DTD SVG 20010904//EN"
 "http://www.w3.org/TR/2001/REC-SVG-20010904/DTD/svg10.dtd">
<svg version="1.0" xmlns="http://www.w3.org/2000/svg"
 width="2156.000000pt" height="2156.000000pt" viewBox="0 0 2156.000000 2156.000000"
 preserveAspectRatio="xMidYMid meet">
<metadata>
Created by potrace 1.11, written by Peter Selinger 2001-2013
</metadata>
<g transform="translate(0.000000,2156.000000) scale(0.100000,-0.100000)"
fill="#000000" stroke="none">
<path d="M17734 19983 c-102 -196 -191 -356 -271 -490 -24 -40 -43 -74 -43
-76 0 -6 -167 -284 -205 -342 -18 -27 -56 -88 -85 -135 -165 -265 -540 -787
-614 -855 -6 -5 -33 -37 -61 -70 -72 -87 -267 -285 -275 -280 -4 3 -3 24 2 47
10 45 21 126 40 298 13 118 16 702 5 825 -4 44 -12 103 -17 130 -5 28 -16 88
-25 135 -23 125 -37 130 -78 28 -25 -62 -79 -178 -97 -208 -5 -8 -22 -44 -39
-80 -27 -59 -94 -187 -166 -315 -86 -155 -193 -327 -302 -485 -15 -21 -104
-141 -178 -239 -11 -14 -53 -64 -94 -111 -276 -314 -471 -491 -751 -682 -179
-122 -279 -178 -595 -335 -320 -159 -399 -203 -472 -268 -110 -97 -292 -380
-560 -869 -88 -161 -211 -396 -247 -473 -15 -30 -20 -29 -33 10 -41 115 -46
161 -46 382 -1 220 11 342 48 503 19 79 19 82 -1 82 -27 0 -460 -119 -729
-200 -885 -268 -1882 -642 -2730 -1023 -888 -399 -1547 -773 -2005 -1135 -208
-165 -528 -511 -679 -735 -376 -558 -603 -1194 -660 -1851 -10 -119 -14 -126
-73 -126 -122 0 -468 -98 -747 -212 -208 -84 -568 -256 -692 -330 -41 -25 -99
-58 -129 -74 -30 -16 -57 -32 -60 -35 -3 -4 -27 -18 -55 -33 -27 -14 -59 -32
-70 -39 -53 -33 -104 -64 -145 -86 -25 -13 -64 -37 -87 -52 -23 -16 -46 -29
-52 -29 -6 0 -11 -3 -11 -8 0 -4 -9 -12 -20 -17 -36 -18 -193 -118 -325 -208
-232 -157 -327 -221 -370 -252 -72 -50 -287 -207 -340 -248 -173 -132 -276
-207 -285 -207 -6 0 -10 -3 -10 -8 0 -6 -118 -106 -205 -172 -43 -32 -223
-182 -290 -240 -29 -25 -99 -85 -156 -135 -505 -439 -1004 -947 -1323 -1348
-84 -106 -130 -166 -161 -211 -11 -16 -29 -41 -40 -56 -93 -129 -124 -181
-109 -187 14 -5 34 1 94 32 14 7 42 16 63 20 20 4 40 11 43 16 3 5 14 9 25 9
10 0 27 4 37 9 26 13 81 32 137 46 28 7 74 23 104 34 29 11 56 19 60 18 3 -1
20 3 36 9 68 25 107 36 112 30 3 -3 18 1 34 9 15 8 39 15 53 15 14 0 27 4 30
9 3 5 20 11 38 14 38 7 103 21 168 37 25 6 63 15 85 19 22 5 54 13 70 19 41
14 106 27 128 24 10 -1 27 3 38 9 19 10 102 27 164 35 17 1 53 8 80 14 79 18
222 42 360 60 44 6 100 15 125 21 25 5 70 11 100 14 30 2 86 9 125 14 38 5 72
8 76 5 4 -2 28 0 53 6 25 5 76 10 113 11 38 0 93 5 123 10 193 31 1019 31
1350 -1 250 -24 321 -31 425 -42 225 -26 725 -6 930 37 17 4 86 17 155 31 191
36 367 82 530 139 294 103 549 220 830 382 116 67 359 230 509 343 427 319
893 778 1367 1345 162 193 600 755 677 866 31 46 34 48 211 113 319 120 613
253 834 378 167 95 302 193 302 219 0 11 -22 30 -54 48 -126 73 -253 222 -311
366 -27 67 -55 219 -43 231 4 3 62 -18 129 -46 216 -91 504 -177 659 -196 19
-3 65 -9 102 -14 257 -37 466 16 758 192 390 235 718 508 1175 979 252 260
560 619 816 952 24 31 50 57 57 57 18 0 619 302 831 417 742 405 1297 829
1737 1328 74 83 203 245 244 305 13 19 27 37 31 40 11 9 200 299 246 379 97
170 230 447 283 591 16 41 40 107 54 145 60 161 178 578 196 690 4 28 15 79
23 115 9 36 18 81 22 100 27 156 39 228 54 340 6 41 15 89 20 107 5 18 7 41 4
52 -3 11 2 55 10 98 9 43 16 108 16 144 0 36 4 92 9 125 14 81 9 703 -6 839
-18 158 -37 275 -69 423 -9 39 -27 24 -69 -55z"/>
<path d="M12345 18159 c-55 -4 -163 -13 -240 -19 -1277 -100 -2621 -538 -3738
-1217 -672 -409 -1204 -837 -1793 -1446 -923 -953 -1662 -2233 -2033 -3522
-88 -307 -164 -628 -159 -672 3 -25 8 -29 51 -37 52 -9 77 2 77 35 0 30 66
308 119 502 111 405 247 786 416 1172 61 138 255 536 303 620 16 28 46 82 67
120 150 275 398 653 619 945 88 118 295 376 341 426 5 7 66 75 135 153 113
127 447 465 575 581 102 92 343 298 439 374 54 43 106 85 115 92 9 7 57 44
106 80 290 216 608 423 930 605 122 69 542 283 620 316 28 12 113 49 190 83
140 62 250 106 380 153 39 14 103 38 143 52 183 67 546 175 817 243 246 62
671 140 960 177 588 74 1241 84 1845 29 231 -21 541 -62 652 -85 35 -8 53 -8
60 -1 14 14 27 97 18 111 -16 28 -539 95 -969 126 -230 16 -866 19 -1046 4z"/>
<path d="M17866 16476 c-14 -25 -26 -47 -26 -49 0 -3 33 -29 73 -58 507 -372
1055 -889 1478 -1394 594 -711 1081 -1545 1419 -2430 202 -528 370 -1168 451
-1710 6 -38 15 -97 20 -130 23 -152 46 -387 64 -650 17 -253 20 -789 5 -1004
-17 -242 -31 -412 -40 -486 -5 -38 -14 -110 -20 -160 -96 -777 -336 -1625
-673 -2377 -575 -1282 -1483 -2424 -2617 -3289 -119 -91 -359 -262 -426 -304
-18 -11 -65 -42 -105 -69 -249 -168 -773 -456 -1064 -586 -444 -199 -766 -319
-1184 -441 -1223 -356 -2565 -432 -3816 -214 -82 14 -172 30 -200 35 -102 17
-424 93 -599 141 -980 268 -1891 700 -2726 1296 -270 193 -579 444 -810 658
-126 116 -470 464 -559 565 -46 52 -98 111 -115 130 -70 80 -232 279 -293 360
-23 30 -61 80 -84 110 -102 131 -302 426 -436 640 -279 449 -586 1087 -753
1565 -17 50 -35 94 -39 98 -10 10 -90 -11 -109 -28 -15 -14 5 -75 133 -400
162 -412 449 -976 695 -1365 325 -515 676 -964 1097 -1404 101 -105 191 -197
200 -205 10 -8 56 -51 103 -95 47 -45 128 -119 180 -165 52 -46 111 -98 130
-115 61 -55 341 -279 440 -353 962 -715 2047 -1223 3185 -1489 126 -30 253
-58 280 -64 874 -177 1811 -217 2715 -114 1350 153 2638 625 3787 1385 316
209 733 529 943 725 25 23 68 61 96 85 71 60 533 525 619 623 164 186 231 266
440 531 148 187 347 483 575 855 162 263 416 778 558 1130 429 1061 632 2107
632 3255 0 626 -51 1148 -171 1740 -123 609 -346 1300 -585 1813 -19 41 -34
75 -34 78 0 6 -185 376 -235 469 -201 376 -411 705 -695 1090 -363 493 -938
1094 -1435 1500 -215 175 -402 315 -423 315 -13 0 -29 -16 -46 -44z"/>
<path d="M17377 15693 c-8 -15 -17 -39 -20 -53 -8 -33 -94 -175 -154 -254
-238 -313 -695 -767 -1177 -1170 -276 -231 -461 -371 -682 -517 -184 -122
-284 -233 -388 -431 -120 -225 -191 -459 -238 -783 -8 -56 -13 -183 -12 -340
0 -273 9 -350 65 -569 16 -65 28 -120 26 -122 -2 -3 -85 -9 -183 -14 -173 -8
-494 -39 -640 -60 -39 -6 -84 -8 -99 -4 -15 4 -177 70 -359 146 -182 77 -340
142 -352 145 -19 4 -24 -6 -52 -94 -50 -159 -55 -181 -49 -196 3 -8 38 -26 79
-40 40 -14 111 -39 158 -57 88 -32 167 -61 235 -85 22 -8 76 -28 120 -43 l80
-29 7 -84 c13 -148 67 -258 179 -370 33 -33 59 -62 57 -63 -1 -2 -46 -18 -98
-36 -427 -147 -1028 -499 -1405 -823 -119 -101 -317 -310 -379 -398 -107 -152
-139 -190 -152 -185 -7 3 -44 -12 -81 -33 -791 -438 -1632 -1031 -2243 -1582
-262 -236 -632 -615 -814 -834 -32 -38 -68 -81 -79 -95 -115 -136 -362 -494
-460 -666 -140 -247 -265 -530 -335 -759 -51 -166 -96 -354 -88 -362 4 -4 62
47 129 114 280 275 565 479 917 654 190 94 297 130 810 274 718 202 1336 452
1880 762 588 335 1115 793 1496 1298 72 95 194 275 194 286 0 4 26 15 58 24
764 216 1825 685 2136 946 76 64 129 115 144 141 9 16 21 26 27 24 145 -66
326 -130 405 -145 36 -7 74 -18 85 -25 11 -7 40 -16 65 -20 25 -4 70 -12 100
-17 91 -16 253 -29 480 -39 220 -10 260 -12 435 -30 273 -29 496 -60 843 -120
59 -10 279 -52 367 -70 28 -6 86 -17 130 -26 44 -9 98 -20 120 -25 22 -5 63
-14 90 -19 103 -20 152 -31 215 -46 36 -8 83 -19 105 -24 103 -24 540 -133
620 -155 95 -26 135 -31 135 -16 0 14 -368 484 -513 655 -258 304 -615 678
-847 888 -659 594 -1347 982 -2082 1172 -150 39 -276 65 -458 96 -69 11 -141
24 -160 28 l-35 8 25 15 c266 165 378 248 538 404 187 179 331 363 427 540 21
39 42 75 46 80 18 24 130 300 171 425 176 527 263 945 353 1695 19 160 39 331
45 380 37 302 82 546 118 643 23 59 19 89 -12 97 -11 4 -29 9 -38 11 -11 3
-22 -4 -31 -23z"/>
<path d="M15441 7064 c-238 -35 -455 -152 -571 -309 -79 -107 -122 -201 -159
-350 -44 -180 -46 -226 -46 -1305 0 -931 2 -1035 18 -1136 78 -494 281 -736
696 -830 142 -32 389 -34 529 -4 267 57 482 168 635 328 l57 61 -2 633 -3 633
-400 0 -400 0 -6 -345 c-6 -338 -9 -372 -42 -437 -32 -62 -149 -72 -193 -17
-49 61 -49 52 -49 1109 0 934 1 993 18 1037 24 63 67 98 117 98 70 0 106 -30
132 -113 5 -18 13 -142 17 -277 l6 -245 400 0 400 0 3 529 2 528 -55 51 c-31
28 -66 58 -79 66 -173 118 -233 152 -361 204 -116 47 -213 73 -349 92 -128 18
-187 17 -315 -1z"/>
<path d="M12507 6993 c-4 -3 -7 -156 -7 -338 l0 -332 26 -39 c63 -92 59 -20
62 -1154 2 -725 -1 -1055 -8 -1101 -8 -46 -22 -84 -46 -120 l-34 -54 2 -335 3
-335 989 -3 c785 -2 991 0 998 10 11 19 10 1350 -2 1368 -8 13 -61 15 -379 15
-203 0 -373 -4 -378 -8 -4 -5 -11 -99 -14 -210 -5 -182 -8 -207 -29 -250 -12
-26 -35 -57 -51 -68 -32 -22 -158 -41 -184 -27 -13 8 -15 56 -15 362 0 266 3
356 13 369 11 15 41 17 262 19 l250 3 0 367 c0 201 -4 370 -8 374 -4 5 -117 8
-250 9 -133 0 -248 4 -254 8 -10 6 -13 80 -13 315 0 169 4 313 9 321 7 10 26
13 79 9 91 -7 130 -29 162 -93 22 -45 25 -64 28 -200 2 -82 8 -158 13 -167 9
-17 37 -18 370 -18 229 0 367 4 380 10 18 10 19 28 19 640 0 345 -3 635 -6
644 -6 14 -102 16 -993 16 -543 0 -991 -3 -994 -7z m687 -3230 c68 -176 124
-339 119 -345 -2 -5 -29 -8 -59 -8 -52 0 -56 2 -66 30 l-10 31 -76 -3 c-72 -3
-76 -4 -82 -28 -5 -23 -11 -25 -69 -28 -58 -3 -63 -1 -56 15 32 82 135 365
135 371 0 21 29 32 81 32 l57 0 26 -67z m242 10 c15 -32 30 -64 34 -72 15 -32
30 -19 64 53 l35 76 60 0 c40 0 61 -4 61 -12 0 -6 -30 -64 -67 -127 -65 -112
-68 -119 -73 -196 l-5 -80 -56 -3 -57 -3 -4 83 c-4 81 -5 85 -71 199 -37 64
-67 120 -67 126 0 5 27 11 60 12 l60 2 26 -58z m589 -124 c0 -194 -2 -202 -67
-235 -36 -19 -132 -18 -169 1 -39 21 -69 71 -69 118 l0 37 50 0 c52 0 53 -1
64 -52 5 -21 12 -28 29 -28 43 0 47 15 47 182 l0 159 58 -3 57 -3 0 -176z"/>
<path d="M13095 3678 c-17 -47 -33 -113 -29 -120 3 -4 23 -8 45 -8 l41 0 -7
43 c-7 41 -30 97 -41 97 -2 0 -7 -6 -9 -12z"/>
<path d="M17475 6044 c-171 -19 -308 -71 -411 -158 -139 -116 -208 -259 -245
-504 -8 -50 -13 -304 -16 -712 -5 -775 5 -921 79 -1110 73 -184 209 -317 392
-380 117 -40 222 -53 431 -52 246 0 308 12 464 86 94 44 215 166 263 266 46
95 74 188 95 315 13 83 17 204 20 729 5 659 0 790 -38 961 -37 172 -98 286
-205 384 -86 79 -187 122 -364 157 -74 14 -388 26 -465 18z m277 -703 c50 -56
51 -68 55 -646 5 -577 -3 -765 -34 -831 -42 -89 -144 -91 -193 -4 l-25 45 0
680 0 680 25 45 c14 24 36 50 50 58 37 19 91 8 122 -27z"/>
</g>
</svg>
